<svg width="426" height="273" viewBox="0 0 426 273" fill="none" xmlns="http://www.w3.org/2000/svg">
<path d="M198.941 137C198.941 137 198.941 136.706 198.941 136.118V134.059V132.012V131.118C198.941 131.118 198.941 130.824 198.941 130.235V128.176V126.13V125.235H199.824H201.882H203.929H204.824C204.824 125.235 204.824 125.533 204.824 126.13V128.176V130.235V131.118C204.824 131.118 204.525 131.118 203.929 131.118H204.824C204.824 131.118 204.824 131.416 204.824 132.012V134.059V136.118V137C204.824 137 204.525 137 203.929 137H201.882H199.824H198.941ZM228.353 137C228.353 137 228.353 136.706 228.353 136.118V134.059V132.012V131.118C228.353 131.118 228.353 130.824 228.353 130.235V128.176V126.13V125.235H229.235H231.294H233.341H234.235C234.235 125.235 234.235 125.533 234.235 126.13V128.176V130.235V131.118C234.235 131.118 233.937 131.118 233.341 131.118H234.235C234.235 131.118 234.235 131.416 234.235 132.012V134.059V136.118V137C234.235 137 233.937 137 233.341 137H231.294H229.235H228.353ZM201.882 125.235C201.882 125.235 201.882 124.941 201.882 124.353V122.294V120.248V119.353H202.765H204.824H206.87H207.765C207.765 119.353 207.765 119.651 207.765 120.248V122.294V124.353V125.235C207.765 125.235 207.467 125.235 206.87 125.235H204.824H202.765H201.882ZM225.412 125.235C225.412 125.235 225.412 124.941 225.412 124.353V122.294V120.248V119.353H226.294H228.353H230.4H231.294C231.294 119.353 231.294 119.651 231.294 120.248V122.294V124.353V125.235C231.294 125.235 230.996 125.235 230.4 125.235H228.353H226.294H225.412ZM204.824 119.353C204.824 119.353 204.824 119.059 204.824 118.471V116.412V114.365V113.471H205.706H207.765H209.811H210.706C210.706 113.471 210.706 113.769 210.706 114.365V116.412V118.471V119.353C210.706 119.353 210.408 119.353 209.811 119.353H207.765H205.706H204.824ZM222.471 119.353C222.471 119.353 222.471 119.059 222.471 118.471V116.412V114.365V113.471H223.353H225.412H227.458H228.353C228.353 113.471 228.353 113.769 228.353 114.365V116.412V118.471V119.353C228.353 119.353 228.055 119.353 227.458 119.353H225.412H223.353H222.471ZM207.765 113.471C207.765 113.471 207.765 113.176 207.765 112.588V110.529V108.483V107.588H208.647H210.706H212.752H213.647C213.647 107.588 213.647 107.886 213.647 108.483V110.529V112.588V113.471C213.647 113.471 213.349 113.471 212.752 113.471H210.706H208.647H207.765ZM219.529 113.471C219.529 113.471 219.529 113.176 219.529 112.588V110.529V108.483V107.588H220.412H222.471H224.517H225.412C225.412 107.588 225.412 107.886 225.412 108.483V110.529V112.588V113.471C225.412 113.471 225.114 113.471 224.517 113.471H222.471H220.412H219.529ZM210.706 107.588C210.706 107.588 210.706 107.294 210.706 106.706V104.647V102.6V101.706H211.588H213.647H215.694H216.588C216.588 101.706 216.588 102.004 216.588 102.6V101.706H217.471H219.529H221.576H222.471C222.471 101.706 222.471 102.004 222.471 102.6V104.647V106.706V107.588C222.471 107.588 222.172 107.588 221.576 107.588H219.529H217.471H216.588C216.588 107.588 216.588 107.294 216.588 106.706V107.588C216.588 107.588 216.29 107.588 215.694 107.588H213.647H211.588H210.706ZM207.765 101.706C207.765 101.706 207.765 101.412 207.765 100.824V98.7647V96.7181V95.8235H208.647H210.706H212.752H213.647C213.647 95.8235 213.647 96.1217 213.647 96.7181V98.7647V100.824V101.706C213.647 101.706 213.349 101.706 212.752 101.706H210.706H208.647H207.765ZM219.529 101.706C219.529 101.706 219.529 101.412 219.529 100.824V98.7647V96.7181V95.8235H220.412H222.471H224.517H225.412C225.412 95.8235 225.412 96.1217 225.412 96.7181V98.7647V100.824V101.706C225.412 101.706 225.114 101.706 224.517 101.706H222.471H220.412H219.529ZM204.824 95.8235C204.824 95.8235 204.824 95.5294 204.824 94.9412V92.8823V90.8358V89.9412H205.706H207.765H209.811H210.706C210.706 89.9412 210.706 90.2394 210.706 90.8358V92.8823V94.9412V95.8235C210.706 95.8235 210.408 95.8235 209.811 95.8235H207.765H205.706H204.824ZM222.471 95.8235C222.471 95.8235 222.471 95.5294 222.471 94.9412V92.8823V90.8358V89.9412H223.353H225.412H227.458H228.353C228.353 89.9412 228.353 90.2394 228.353 90.8358V92.8823V94.9412V95.8235C228.353 95.8235 228.055 95.8235 227.458 95.8235H225.412H223.353H222.471ZM201.882 89.9412C201.882 89.9412 201.882 89.6471 201.882 89.0588V87V84.9534V84.0588H202.765H204.824H206.87H207.765C207.765 84.0588 207.765 84.357 207.765 84.9534V87V89.0588V89.9412C207.765 89.9412 207.467 89.9412 206.87 89.9412H204.824H202.765H201.882ZM225.412 89.9412C225.412 89.9412 225.412 89.6471 225.412 89.0588V87V84.9534V84.0588H226.294H228.353H230.4H231.294C231.294 84.0588 231.294 84.357 231.294 84.9534V87V89.0588V89.9412C231.294 89.9412 230.996 89.9412 230.4 89.9412H228.353H226.294H225.412ZM198.941 84.0588C198.941 84.0588 198.941 83.7647 198.941 83.1765V81.1176V79.0711V78.1765C198.941 78.1765 198.941 77.8823 198.941 77.2941V75.2353V73.1887V72.2941H199.824H201.882H203.929H204.824C204.824 72.2941 204.824 72.5923 204.824 73.1887V75.2353V77.2941V78.1765C204.824 78.1765 204.525 78.1765 203.929 78.1765H204.824C204.824 78.1765 204.824 78.4747 204.824 79.0711V81.1176V83.1765V84.0588C204.824 84.0588 204.525 84.0588 203.929 84.0588H201.882H199.824H198.941ZM228.353 84.0588C228.353 84.0588 228.353 83.7647 228.353 83.1765V81.1176V79.0711V78.1765C228.353 78.1765 228.353 77.8823 228.353 77.2941V75.2353V73.1887V72.2941H229.235H231.294H233.341H234.235C234.235 72.2941 234.235 72.5923 234.235 73.1887V75.2353V77.2941V78.1765C234.235 78.1765 233.937 78.1765 233.341 78.1765H234.235C234.235 78.1765 234.235 78.4747 234.235 79.0711V81.1176V83.1765V84.0588C234.235 84.0588 233.937 84.0588 233.341 84.0588H231.294H229.235H228.353ZM243.093 137C243.093 137 243.093 136.706 243.093 136.118V134.059V132.012V131.118C243.093 131.118 243.093 130.824 243.093 130.235V128.176V126.13V125.235C243.093 125.235 243.093 124.941 243.093 124.353V122.294V120.248V119.353C243.093 119.353 243.093 119.059 243.093 118.471V116.412V114.365V113.471C243.093 113.471 243.093 113.176 243.093 112.588V110.529V108.483V107.588C243.093 107.588 243.093 107.294 243.093 106.706V104.647V102.6V101.706C243.093 101.706 243.093 101.412 243.093 100.824V98.7647V96.7181V95.8235C243.093 95.8235 243.093 95.5294 243.093 94.9412V92.8823V90.8358V89.9412C243.093 89.9412 243.093 89.6471 243.093 89.0588V87V84.9534V84.0588C243.093 84.0588 243.093 83.7647 243.093 83.1765V81.1176V79.0711V78.1765C243.093 78.1765 243.093 77.8823 243.093 77.2941V75.2353V73.1887V72.2941H243.976H246.034H248.081H248.976C248.976 72.2941 248.976 72.5923 248.976 73.1887V72.2941H249.858H251.917H253.963H254.858C254.858 72.2941 254.858 72.5923 254.858 73.1887V72.2941H255.74H257.799H259.846H260.74C260.74 72.2941 260.74 72.5923 260.74 73.1887V72.2941H261.623H263.682H265.728H266.623C266.623 72.2941 266.623 72.5923 266.623 73.1887V75.2353V77.2941V78.1765C266.623 78.1765 266.325 78.1765 265.728 78.1765H263.682H261.623H260.74C260.74 78.1765 260.74 77.8823 260.74 77.2941V78.1765C260.74 78.1765 260.442 78.1765 259.846 78.1765H257.799H255.74H254.858C254.858 78.1765 254.858 77.8823 254.858 77.2941V78.1765C254.858 78.1765 254.56 78.1765 253.963 78.1765H251.917H249.858H248.976C248.976 78.1765 248.976 77.8823 248.976 77.2941V78.1765C248.976 78.1765 248.677 78.1765 248.081 78.1765H248.976C248.976 78.1765 248.976 78.4747 248.976 79.0711V81.1176V83.1765V84.0588C248.976 84.0588 248.677 84.0588 248.081 84.0588H248.976C248.976 84.0588 248.976 84.357 248.976 84.9534V87V89.0588V89.9412C248.976 89.9412 248.677 89.9412 248.081 89.9412H248.976C248.976 89.9412 248.976 90.2394 248.976 90.8358V92.8823V94.9412V95.8235C248.976 95.8235 248.677 95.8235 248.081 95.8235H248.976C248.976 95.8235 248.976 96.1217 248.976 96.7181V98.7647V100.824V101.706C248.976 101.706 248.677 101.706 248.081 101.706H248.976C248.976 101.706 248.976 102.004 248.976 102.6V104.647V106.706V107.588C248.976 107.588 248.677 107.588 248.081 107.588H248.976C248.976 107.588 248.976 107.886 248.976 108.483V107.588H249.858H251.917H253.963H254.858C254.858 107.588 254.858 107.886 254.858 108.483V107.588H255.74H257.799H259.846H260.74C260.74 107.588 260.74 107.886 260.74 108.483V107.588H261.623H263.682H265.728H266.623C266.623 107.588 266.623 107.886 266.623 108.483V110.529V112.588V113.471C266.623 113.471 266.325 113.471 265.728 113.471H263.682H261.623H260.74C260.74 113.471 260.74 113.176 260.74 112.588V113.471C260.74 113.471 260.442 113.471 259.846 113.471H257.799H255.74H254.858C254.858 113.471 254.858 113.176 254.858 112.588V113.471C254.858 113.471 254.56 113.471 253.963 113.471H251.917H249.858H248.976C248.976 113.471 248.976 113.176 248.976 112.588V113.471C248.976 113.471 248.677 113.471 248.081 113.471H248.976C248.976 113.471 248.976 113.769 248.976 114.365V116.412V118.471V119.353C248.976 119.353 248.677 119.353 248.081 119.353H248.976C248.976 119.353 248.976 119.651 248.976 120.248V122.294V124.353V125.235C248.976 125.235 248.677 125.235 248.081 125.235H248.976C248.976 125.235 248.976 125.533 248.976 126.13V128.176V130.235V131.118C248.976 131.118 248.677 131.118 248.081 131.118H248.976C248.976 131.118 248.976 131.416 248.976 132.012V134.059V136.118V137C248.976 137 248.677 137 248.081 137H246.034H243.976H243.093ZM266.623 107.588C266.623 107.588 266.623 107.294 266.623 106.706V104.647V102.6V101.706C266.623 101.706 266.623 101.412 266.623 100.824V98.7647V96.7181V95.8235C266.623 95.8235 266.623 95.5294 266.623 94.9412V92.8823V90.8358V89.9412C266.623 89.9412 266.623 89.6471 266.623 89.0588V87V84.9534V84.0588C266.623 84.0588 266.623 83.7647 266.623 83.1765V81.1176V79.0711V78.1765H267.505H269.564H271.61H272.505C272.505 78.1765 272.505 78.4747 272.505 79.0711V81.1176V83.1765V84.0588C272.505 84.0588 272.207 84.0588 271.61 84.0588H272.505C272.505 84.0588 272.505 84.357 272.505 84.9534V87V89.0588V89.9412C272.505 89.9412 272.207 89.9412 271.61 89.9412H272.505C272.505 89.9412 272.505 90.2394 272.505 90.8358V92.8823V94.9412V95.8235C272.505 95.8235 272.207 95.8235 271.61 95.8235H272.505C272.505 95.8235 272.505 96.1217 272.505 96.7181V98.7647V100.824V101.706C272.505 101.706 272.207 101.706 271.61 101.706H272.505C272.505 101.706 272.505 102.004 272.505 102.6V104.647V106.706V107.588C272.505 107.588 272.207 107.588 271.61 107.588H269.564H267.505H266.623Z" fill="black"/>
<rect x="2.5" y="2.5" width="421" height="268" stroke="#191C28" stroke-width="5"/>
<path d="M102.818 45L115.273 45V51.0339H121.5V57.0678H127.727V63.1017H133.954V69.1355H140.182V75.1694H146.409V81.2033H152.636V87.2372H158.864V93.2711H165.091V105.339H158.864V111.373H152.636V117.407H146.409V123.44H140.182V129.474H133.954V135.508H127.727V141.542H121.5V147.576H115.273V153.61H102.818V123.44L52.9999 123.44L52.9999 75.1694H102.818L102.818 45ZM115.273 69.1355L115.273 87.2372L65.4545 87.2372L65.4545 111.373L115.273 111.373V129.474H121.5V123.44H127.727V117.407H133.954V111.373H140.182V105.339H146.409V93.2711H140.182V87.2372H133.954V81.2033H127.727V75.1694H121.5L121.5 69.1355H115.273Z" fill="#191C28" stroke="#FF00FF" stroke-width="0.008"/>
<rect x="53" y="169.969" width="320" height="61.0435" fill="#D9D9D9"/>
<rect x="53" y="170" width="236" height="61" fill="#191C28"/>
</svg>
